<svg xmlns="http://www.w3.org/2000/svg" xmlns:xlink="http://www.w3.org/1999/xlink" version="1.1" x="0px" y="0px" viewBox="0 0 100 125" enable-background="new 0 0 100 100" xml:space="preserve"><path fill-rule="evenodd" clip-rule="evenodd" d="M67.498,42.381C65.5,50.5,54.5,67.5,54.5,67.5s-2,3-4,3s-4-3-4-3  s-11-17-12.997-25.119C32.864,40.535,32.5,38.562,32.5,36.5c0-9.941,8.059-18,18-18c9.941,0,18,8.059,18,18  C68.5,38.562,68.137,40.535,67.498,42.381z M50.5,29.5c-3.866,0-7,3.134-7,7s3.134,7,7,7c3.866,0,7-3.134,7-7S54.366,29.5,50.5,29.5  z M50.5,73.506c8.284,0,15,2.235,15,4.994c0,2.758-6.716,4.994-15,4.994s-15-2.236-15-4.994C35.5,75.741,42.216,73.506,50.5,73.506z  "/><text x="0" y="115" fill="#000000" font-size="5px" font-weight="bold" font-family="'Helvetica Neue', Helvetica, Arial-Unicode, Arial, Sans-serif"></text><text x="0" y="120" fill="#000000" font-size="5px" font-weight="bold" font-family="'Helvetica Neue', Helvetica, Arial-Unicode, Arial, Sans-serif"></text></svg>